PathFileType	3	(X/Y/Z)	results
DataRate	CameraRate	NumFrames	NumMarkers	Units	OrigDataRate	OrigDataStartFrame	OrigNumFrames
30.0	30.0	4	85	mm	30.0	61	243
Frame#	Time	head			nose			neck			shoulder_r			elbow_r			wrist_r			shoulder_l			elbow_l			wrist_l			hip_r			knee_r			ankle_r			hip_l			knee_l			ankle_l			heel_r			heel_l			mtoe_r			ltoe_r			mtoe_l			ltoe_l			asis_l			asis_r			psi_r			psi_l			mhnd_r			lhnd_r			mhnd_l			lhnd_l			l_lat_knee			r_med_wrist			l_lat_ankle			r_med_ankle			r_lat_knee			xiphoid			l_med_ankle			r_med_knee			l_med_elbow			navel			r_lat_elbow			r_lat_wrist			l_med_wrist			l_lat_elbow			l_med_knee			r_med_elbow			r_lat_ankle			l_lat_wrist			chin			T10			r_eye			l_eye			l_ear			r_ear			spinal_cord_8			spinal_cord_12			spinal_cord_27			spinal_cord_33			up_arm_r_0			up_arm_r_5			up_arm_l_0			up_arm_l_5			front_torso_11			front_torso_7			front_torso_4			front_torso_1			front_torso_10			thigh_r_2			thigh_r_3			thigh_l_1			thigh_l_5			shank_l_0			shank_l_4			shank_r_1			shank_r_2			foot_r_1			foot_r_3			foot_r_5			foot_r_6			foot_r_7			foot_l_1			foot_l_7			foot_l_0			foot_l_4			foot_l_5			foot_l_6			
		X1	Y1	Z1	X2	Y2	Z2	X3	Y3	Z3	X4	Y4	Z4	X5	Y5	Z5	X6	Y6	Z6	X7	Y7	Z7	X8	Y8	Z8	X9	Y9	Z9	X10	Y10	Z10	X11	Y11	Z11	X12	Y12	Z12	X13	Y13	Z13	X14	Y14	Z14	X15	Y15	Z15	X16	Y16	Z16	X17	Y17	Z17	X18	Y18	Z18	X19	Y19	Z19	X20	Y20	Z20	X21	Y21	Z21	X22	Y22	Z22	X23	Y23	Z23	X24	Y24	Z24	X25	Y25	Z25	X26	Y26	Z26	X27	Y27	Z27	X28	Y28	Z28	X29	Y29	Z29	X30	Y30	Z30	X31	Y31	Z31	X32	Y32	Z32	X33	Y33	Z33	X34	Y34	Z34	X35	Y35	Z35	X36	Y36	Z36	X37	Y37	Z37	X38	Y38	Z38	X39	Y39	Z39	X40	Y40	Z40	X41	Y41	Z41	X42	Y42	Z42	X43	Y43	Z43	X44	Y44	Z44	X45	Y45	Z45	X46	Y46	Z46	X47	Y47	Z47	X48	Y48	Z48	X49	Y49	Z49	X50	Y50	Z50	X51	Y51	Z51	X52	Y52	Z52	X53	Y53	Z53	X54	Y54	Z54	X55	Y55	Z55	X56	Y56	Z56	X57	Y57	Z57	X58	Y58	Z58	X59	Y59	Z59	X60	Y60	Z60	X61	Y61	Z61	X62	Y62	Z62	X63	Y63	Z63	X64	Y64	Z64	X65	Y65	Z65	X66	Y66	Z66	X67	Y67	Z67	X68	Y68	Z68	X69	Y69	Z69	X70	Y70	Z70	X71	Y71	Z71	X72	Y72	Z72	X73	Y73	Z73	X74	Y74	Z74	X75	Y75	Z75	X76	Y76	Z76	X77	Y77	Z77	X78	Y78	Z78	X79	Y79	Z79	X80	Y80	Z80	X81	Y81	Z81	X82	Y82	Z82	X83	Y83	Z83	X84	Y84	Z84	X85	Y85	Z85	
61	2.033333333333333	270.76432593141544	1707.2296991425817	-246.51719713494458	250.6137990081908	1540.2876401588949	-376.58751954336145	245.28533992561216	1384.830117578535	-236.27299101321242	437.5231146075735	1365.3803269014406	-241.45316013893674	528.8779762444442	1177.5872730099104	-400.71769005700406	344.85485098516256	1233.7386657814384	-519.3572882327597	111.18035001977876	1330.9385847994658	-235.65111397372283	-39.37122500869435	1212.7923892179383	-424.04269123750873	119.40967399228344	1236.3547058215574	-601.7272575400602	353.83934263835636	878.7306263652797	-237.63291086309218	380.7686303049501	495.8155828351603	-204.09723070288007	449.07694545627857	110.6155945351327	-179.3478660168584	147.98891948148017	866.2222147201157	-232.42454019126947	137.4622175235495	482.9366019831316	-185.42441404793087	84.17359227762	102.55784844835026	-156.54695371709593	452.3055472994712	54.942435925329924	-162.12513168998018	71.60038620286566	39.35008540057725	-132.72273969126792	465.45799379273524	36.93007712966865	-387.4048651184562	527.7194940335419	42.58221437250065	-323.10637997452193	101.34407127404485	49.97213631010669	-359.63662928399714	16.963966592417535	31.061897627088555	-311.2371566482562	97.12213383514573	929.0362406333921	-276.53673035797596	398.80967254097135	944.237746077188	-280.60527511836824	299.7060808652143	960.6949920351551	-134.35035897173486	196.901533950793	953.993853381504	-137.88328767886088	294.2593525030133	1225.2614690214607	-571.7969720885791	276.1229583551455	1272.9013305621638	-555.3483534705232	147.9773402850977	1227.236408986327	-671.8368995742144	188.72845610564482	1256.0676664486002	-652.7619821109089	87.52969442424587	478.66431788861047	-180.1033979259073	359.1115782737466	1214.0618294440792	-534.1326643860366	30.58763722439525	95.57295307778485	-148.78608034150292	416.5002264347365	94.28863402924009	-192.3070191038022	423.8496404154376	489.2905440546115	-203.55497186958047	250.13665385627914	1213.2760956511809	-326.41396008209875	111.39903103031926	86.16890195705362	-170.76831816717345	340.67485398941983	486.66101945645266	-213.30676360596215	-31.741587808209086	1185.5296825376056	-400.3338820143697	250.219024545375	994.3851642021344	-335.28946177882256	544.0613914446482	1209.8293024350667	-419.2208852009611	339.8957259420098	1247.350675206439	-491.5433618882618	89.51121159075734	1230.977773307848	-615.4018828363128	-46.4645963966077	1252.8887186927816	-427.53595473911446	176.10969206368475	476.67745987084595	-215.83787746824714	511.34098131055725	1156.4628828561702	-375.8906886563725	499.16547521219104	100.64566574791894	-181.33172255756295	133.16523007120938	1251.4895777826002	-577.0303027170525	252.78067627323148	1463.6431028866052	-361.52269235340293	247.51079034270242	1229.7738859850535	-131.70152437560844	283.67613414754453	1571.6230902114846	-378.8103886685692	215.28234088130276	1571.50868616164	-369.5886726484928	176.93434703102935	1560.8162403196159	-262.1096135202104	346.8860867450057	1557.8512593684466	-282.60916299024	243.78522800071732	1445.1828783143928	-189.13584637289927	243.77450333355534	1329.6036914465637	-134.50003299267598	262.106155463198	1078.28203860425	-143.2974288367106	247.68085414625992	1219.8118548884515	-144.42476996713975	452.51350449657696	1285.7577840223005	-352.88253541530946	527.5250493472281	1254.326536811284	-317.44645570884734	68.71963156257087	1333.5921222513964	-280.58588025672026	-4.54075807161168	1212.8339061471495	-345.22785293899557	299.64112487828623	1023.7929083585828	-296.0200371900259	252.72760759167545	1125.73402792885	-354.57278899881584	182.347455734652	1257.4834077204837	-334.2627485490762	176.73973457182453	1055.7847077544864	-302.6949589494525	332.39288426420353	1300.1167585322091	-341.40097612852225	351.21559899090295	669.0256723812618	-223.6631088725888	447.94355805351177	641.13253820427	-211.26358639829502	185.6008104083428	589.5419241693236	-209.9532479167683	43.7305663143788	764.2423946700927	-219.6756921651505	30.291573193924144	203.4223530234904	-169.42260447926208	164.01315036695624	328.7867200050214	-181.5538655698847	468.15173491026206	341.109415786953	-191.6404882929501	376.6240979381786	287.3757112518629	-196.5604866518115	488.2270767164104	33.12412079687333	-367.50087366047126	510.99175964583867	38.38150289211568	-349.34438324835486	446.59359787275616	49.875366764341486	-305.9976598547295	481.72988055150387	61.32851067517323	-290.69730846175764	513.3575733146132	51.93585599571271	-276.0503252512857	49.96552418146827	34.31011639841807	-338.6571937661515	21.272771916469903	58.95721473590619	-233.00990127535974	34.292535556706284	33.385984722425526	-332.06339966271133	69.1639266978911	35.38194596171471	-346.1087625567609	56.51331929766031	48.14999281860054	-287.173239896905	84.22766794193508	59.82474636065011	-253.93272837320623	
62	2.0666666666666664	269.06469933558475	1708.1582539730953	-244.00111889248296	253.00609104812045	1539.6826693394312	-372.65601404474955	248.0741352395447	1384.5855080236045	-233.8330335490983	442.9598316166597	1364.228767192486	-234.9377444736696	532.0996596294342	1178.3365258457534	-397.6500611358175	347.86840875162443	1236.6631228428732	-514.9091677263657	108.48508357219643	1334.0881834671193	-228.83982744475355	-34.3437328418619	1215.6228321453466	-422.9572568421359	125.03166902116259	1240.9460907849525	-599.865638798121	353.0589932825526	878.4298724613842	-239.67881279282506	380.35993001933355	495.39882733111597	-207.29091278659166	448.69937402848683	110.4095550679559	-179.5317955038223	147.18999307492038	865.5338779783044	-236.5752212270313	136.54513695972366	482.2596429476754	-189.348118479881	83.8839882954182	101.98632445722572	-158.03377508822024	451.8383549953985	54.87648790967171	-161.89922356406214	71.40994319581422	38.50500357554712	-134.15279791476007	466.6618519723953	35.15377295041409	-386.931818233714	528.4435032591189	41.43090854696948	-322.2297209536362	100.58346439423273	51.3519931825898	-361.0256446288642	16.32871788320123	31.949668848543396	-312.60255462680806	96.64882423825411	928.4955382326308	-280.8509103280487	398.3339801838243	944.2459274337149	-281.8517883003377	297.75965987759344	959.7421702418056	-136.49864633778037	195.00730399508	952.8805051557609	-141.08478018065674	297.06807537264666	1229.0479823619748	-567.2830499435904	279.14828500372266	1276.5266383330297	-550.1453547933531	153.97494260906234	1232.265104650407	-669.8766678899577	194.4220734617063	1261.343991419115	-650.5325402593509	86.64198557349545	478.0524925391108	-183.79209944872363	362.00868911482576	1217.1357317107029	-529.9915206104617	30.34389166944851	94.97835806941023	-149.98262869500178	416.20895389181624	93.97888199249977	-192.57623845591627	423.4364043068341	488.9945770761034	-206.30972295328215	251.3882126068363	1214.1409568969927	-326.12270725875226	111.06399279660442	85.55024176373006	-172.2876107194305	340.3645987230434	486.2533001377762	-216.87463925640742	-27.02453100758563	1188.2351075667068	-399.29471257822024	249.20706195174836	995.390610102204	-337.7652819271601	547.3445776275599	1210.7658250037896	-415.77147996765257	343.04908710665114	1249.9230470061898	-486.9012622255526	95.23513216752902	1235.3859377236238	-613.6886603089924	-41.948505048228434	1255.6405610395307	-426.27135683075517	175.06709205602615	475.97525849162633	-219.903070870339	514.6106657412654	1156.9415292089986	-373.02171850139655	498.80362819751133	100.45208947504524	-181.14690325159728	138.56353582659926	1256.1069071252803	-575.0612545384362	255.5628235516878	1463.2235577529818	-356.73442984767524	248.38011655903114	1228.2074687371223	-131.2250688259966	285.8227367742024	1571.2962225831307	-374.5588005828839	217.2629937003442	1570.648714350418	-366.6907350822606	176.88451106179585	1560.7314419708648	-259.88309944751666	347.229859300929	1559.1168226533064	-276.9849066640065	247.0708516403374	1444.3511717329566	-185.9407029264518	245.69588408704016	1328.0983407562162	-132.7710742848453	261.42361206341593	1076.7291900368314	-144.69606779208854	248.48226232231636	1218.4055185972709	-144.0727652478568	456.70800056031254	1286.2129431656133	-347.65635806589034	531.7763631095897	1253.8157409875705	-313.22478618354245	67.39111054960529	1336.5605996955444	-275.0378753800359	-1.9599243389927383	1215.3775330282456	-343.10632909596603	298.8218481420937	1023.780433933451	-297.9929546211081	253.14388715432617	1126.9387605885609	-355.3791744786674	184.0876124815043	1259.1525563900784	-333.59602222665865	176.28121707423452	1057.1415679662803	-304.5967430700146	334.5903625350728	1300.2960170018448	-339.7867727651227	350.67721074463503	668.6720690991081	-226.48039756995652	447.33079582673906	640.9053617992575	-213.2453073653217	184.67425292385198	588.8350799834233	-214.11855302766108	42.90476512582225	763.6451096620988	-223.32791390986677	29.812043247802595	202.70663731209171	-171.23778900289963	163.31326781312117	328.1683785625481	-184.7146850823343	467.739292185249	340.8249292684314	-193.2647718396791	376.2682441945942	287.012450445678	-198.37263039793126	489.2935013183547	31.54871256993731	-366.83462180519376	511.91515327255365	36.993208999623995	-348.5549248452256	447.18102251545815	48.68765871015506	-305.76587558586556	482.1821561880285	60.33132861168675	-290.30045572313537	513.7215881715475	51.11755063821793	-275.35262798042726	49.26087169382413	35.473554653460255	-340.0719492008424	20.827403491347646	59.07985987481082	-234.11731674237706	33.60462730769675	34.48132336113748	-333.44833981853094	68.44034127952231	36.62269035647355	-347.56065995663135	55.93457167809883	48.81096348464205	-288.471672453425	83.72956063563396	60.16668104866792	-255.1879998066492	
63	2.1	266.4136955541126	1708.6927944812785	-241.44619526903733	254.6231868896976	1540.0144272150737	-370.2971785259285	249.0053532765071	1384.1043461498673	-232.37913606006265	445.48714925798805	1362.015292405936	-229.7053994990051	528.0298115006615	1178.2358816417268	-398.19566454026517	345.07822276239466	1239.7257195998773	-515.8415731036526	103.50010669015136	1334.451806595439	-227.05114958709154	-34.51305164843636	1217.9000256223803	-425.75630084214987	132.11234623844751	1244.3714353244934	-595.6786448726928	352.3111374083852	877.6149004957522	-241.27552680798496	380.1337850494073	494.51729753367954	-209.73772605797492	448.7448768995108	109.74087241933877	-179.78428370352842	146.41898618490816	864.7371909391932	-240.51997273926855	135.599094513885	481.40900240913413	-193.56357879285503	83.68363284570881	101.27023797106122	-159.4918009157121	451.93671052354745	54.26006211391859	-161.8715694482855	71.45641665260706	37.622749567074145	-135.38638701784697	466.49548760034907	33.799445932801724	-386.8555586725502	528.3536199626895	40.24219079209099	-322.2428760260776	98.762390521208	51.77981208564651	-362.4136748692679	14.930442035692334	31.99372128931202	-313.41547930381887	96.38949509018954	927.7407979777737	-285.3140859201231	398.06801864900467	943.461441099773	-282.87694870439805	295.85149720248694	958.846905654273	-138.66206199560233	193.15719627551718	951.9994728027851	-144.4200938859157	294.5594582408332	1233.2554853565416	-568.6400415900983	276.9345956391627	1280.6524412302435	-550.9783585750221	163.91492604675304	1236.2296707125824	-664.5039627963374	203.58630360437314	1265.0391340247636	-643.2449893956228	85.76240140300045	477.30975888264487	-187.46616202225076	359.14954482312487	1220.2814811341098	-531.0948805367534	30.24212369581797	94.25572504180191	-150.8156147718269	416.2689842628602	93.21312530370768	-192.74197960344884	423.2041809001209	488.2411146259238	-208.2822442659739	251.3525444551169	1214.6444586454925	-326.4936897250443	110.72353420185904	84.77931596768634	-173.94733671767258	340.2551161079832	485.3468313989673	-219.73356355274856	-28.032290100567515	1190.3436195661752	-402.0451560120646	247.95394566041384	996.0471614660996	-340.4826989117877	543.7580418054212	1210.7504457362995	-415.74213661729954	340.1888264184598	1252.6487880714244	-487.6887344341913	102.90288357781377	1239.0053854477671	-610.7729363109447	-41.77652629698789	1257.9813738344849	-429.06717782923073	173.80317204808188	475.1163475887696	-224.4976117084799	510.4035178701858	1156.639249070836	-373.84273281376113	498.85662292491605	99.81057581620367	-181.33286355751903	144.63606047054517	1259.2821167082916	-570.2022359351886	257.60970029723745	1463.5907583394323	-354.2805296167051	248.46525624831216	1226.6346570130993	-131.45547917705264	287.15876973042975	1571.9491204118597	-371.5544778753709	218.46346016612398	1570.6291065644261	-365.0755814188936	176.03007151157996	1560.3580756416195	-259.1012513544804	346.6944321184348	1560.4155408765535	-272.75003110661663	248.34449946588714	1443.3571504564231	-183.84785827842282	246.33551885841277	1326.5497306642767	-131.92858118228412	260.6642961086152	1075.2396249787369	-146.55505559235192	248.5101500146385	1216.9707596898922	-144.40766187826657	455.84810429756493	1286.5198566475215	-344.483692692285	530.6312817027443	1251.5922913565412	-311.958126331132	63.74258953301965	1337.4230830289096	-274.37554540653076	-4.398495569738578	1217.0343137716006	-345.02646780686	297.7343426094422	1023.7325784342607	-300.4217841429151	252.61747248488987	1127.7529153869482	-356.684846966015	184.30134255603312	1260.1065948584128	-333.46475833835774	175.37944685895172	1057.8424211949628	-306.63303692075726	335.0289233563805	1300.4780136977733	-339.2554788462057	350.25994231650367	667.8150024313439	-228.70562248537962	446.83011612418	640.223792022666	-214.52818283066165	183.6626375735291	587.9542239941271	-218.70951343231297	42.10354407366715	763.0131677086378	-226.28155065429254	29.364625393815153	201.85932908215847	-172.68205584721323	162.5784560345721	327.3735239738924	-188.33818604172637	467.6216054904263	340.0884321259298	-194.81853278108463	376.19040288378164	286.1818877834733	-199.63987943596769	489.14699451902726	30.24343025132862	-366.7720006327488	511.79282384514215	35.73105265874839	-348.53518583673485	447.1146531452061	47.60940919128392	-305.71218434892756	482.14116315352334	59.278346472976644	-290.3234508719752	513.6907711113672	50.09071662086471	-275.3810038160204	47.63292997700294	35.71554169753549	-341.13203571571773	20.03388394950504	58.68970406280803	-234.8184221865961	32.032511381356365	34.665259894104864	-334.38677365712863	66.7491967499807	36.93228787917712	-348.7701787250059	54.70991739490801	48.772527261846925	-289.51377651143576	82.76067976179473	59.978754974575004	-256.39441980741606	
64	2.1333333333333333	264.2963165847689	1708.830318737905	-238.93305851509805	255.61797235660956	1540.9436354519632	-369.05888793081897	248.0203795190299	1383.525744391984	-232.27314826100226	444.90136886929486	1359.5793430311348	-228.42531790849597	520.268686656998	1177.5951634738615	-402.1453746808082	338.5982085347135	1242.3130309953674	-520.0448182671529	98.32647986226677	1332.7364114095733	-228.82159254316986	-38.88875649327336	1219.5618989260759	-430.01601417034976	138.82815677796958	1247.5319818602802	-588.0436540040474	351.3913821609246	876.7379048880392	-243.0382760778022	379.8167171913403	493.5171763845054	-213.01020489555455	448.5583050741396	108.99277368137473	-180.25099582896817	145.49199123572708	864.0152561726845	-244.28696623286356	134.66274387881285	480.63266951753883	-197.51078468435614	84.00515872002087	100.65303491443962	-159.9492646244765	451.81900135630366	53.41458399892776	-162.09331525209902	72.08784604809311	36.90714699144417	-135.47113651058604	465.552620487926	33.76995429994438	-387.2018811514988	527.6489012939797	39.75462610847111	-322.77384476319617	98.26225753536484	51.63845400176842	-362.59514852671333	14.784918049172555	31.22529208300696	-313.2499891153348	95.94667752605082	927.0801394988157	-289.5307440945629	397.59906468148995	942.571723063662	-284.1587801443398	293.99984033449493	957.9586021958263	-140.93410353486684	191.36112688589324	951.1917329049141	-147.6917430931781	288.28291738814664	1236.9513849204548	-573.1608422398336	271.08269883385316	1284.3483174886417	-555.0852919146649	175.10849041698947	1240.2142110294947	-654.7130204466624	213.41788992656433	1268.4682229205812	-630.4262329896609	84.90404456813714	476.62733780471916	-190.8674506971244	352.5357777045535	1222.8788666885648	-535.4331685696131	30.678612614216895	93.58643010216933	-150.63169655610585	416.09891936853194	92.35957580366444	-193.11477903127104	422.8657934857948	487.4004104320509	-210.8816380769556	250.49970216665295	1214.7564136709539	-327.6171462795845	110.92267040344514	84.1115097706559	-174.57440735484934	340.10701976193485	484.3372051238499	-223.59616062632844	-33.35078004132881	1191.81680509449	-406.28597499587136	247.02862681048435	996.2687854568518	-343.2097451385968	536.5245321271527	1210.0947696609933	-419.2326762483928	333.7052714666866	1254.9905355687654	-491.78116200833	110.66376583559642	1242.564667727196	-605.1292534191628	-45.27487285277919	1259.792575143556	-433.32428468843653	172.55469049019757	474.3499806507963	-228.8081218639174	502.4904647308892	1155.904035474026	-377.987646301129	498.6751756249331	99.07190200259619	-181.69029122371848	149.69968316059177	1261.9900600027447	-561.5673789566458	258.6590396684217	1464.4312881996268	-353.48191465064116	247.1770202241424	1225.3236457263697	-132.5035940715373	288.02588857417146	1573.029241314095	-369.5176306784513	219.2307328573455	1571.3636593037015	-364.30068919408563	174.92262802179627	1560.215837504873	-259.1856898050852	345.8051155349328	1561.1159945886757	-269.72047271074433	247.2779893980276	1442.4229374362058	-183.31208232603083	245.09595096151887	1325.2405478358958	-132.25185385427116	259.33806398211465	1074.036904927657	-148.68075634865048	247.24660428365192	1215.7545551968085	-145.52586837924153	451.6233481563473	1286.3990845010399	-344.9604265838665	526.011365254199	1248.9497070905861	-314.39348445837544	59.391941398918554	1336.647078121794	-276.75796176665887	-10.079192492463903	1217.868250509936	-348.82437381336996	296.7314734546904	1023.6364236610705	-302.8354149298097	251.79152040125362	1128.0870139888175	-358.43909742982527	183.4861005726701	1260.301276567597	-334.4074310964571	174.40719984658713	1057.85100468664	-309.0736903195387	334.2456055665132	1300.6396119757035	-339.5628037835518	349.73659196846495	666.8738533970318	-231.52529709670543	446.15889193100077	639.4756290091759	-216.0285062498437	182.61404758920807	587.171593657126	-223.0470050297108	41.20254503587623	762.4109359571995	-229.03919415226778	29.31171771102349	201.01602125697082	-173.31343797256258	162.0544763891853	326.7026225424875	-191.39908094644815	467.3546747060674	339.2344301581457	-196.9193461341148	375.9486851565095	285.25780587049843	-201.42432355751447	488.2592090143326	30.060028636838563	-367.2085671235902	510.9846736925008	35.40074208240703	-349.02728459149944	446.49141945032585	47.3334060170635	-305.941297726794	481.6088812022897	58.82436114234847	-290.62609452606745	513.1770560180603	49.47251776652493	-275.82540559318045	47.335478125459645	35.20690684288694	-341.10891850360343	20.075779578647925	57.81580467206254	-234.62957555991258	31.773205198404284	34.04403495091085	-334.29436769142615	66.40832739385777	36.56051885353842	-348.83209858347436	54.56431283501009	48.21879246670725	-289.5003137222797	82.69351706206439	59.54790230790216	-256.4894710011377	
